<svg xmlns="http://www.w3.org/2000/svg" version="1.1" xmlns:xlink="http://www.w3.org/1999/xlink" xmlns:svgjs="http://svgjs.dev/svgjs" viewBox="0 0 640 800"><g shape-rendering="crispEdges"><g transform="translate(75 50)"><use xlink:href="#SvgjsSymbol1030" x="112.5" y="506.25" fill="hsl(272, 99%, 54%)"></use><use xlink:href="#SvgjsSymbol1031" x="112.5" y="506.25" fill="#c956ff"></use><use xlink:href="#SvgjsSymbol1032" x="112.5" y="506.25" fill="#5700c9"></use></g><g transform="translate(75 50)"><use xlink:href="#SvgjsSymbol1030" x="112.5" y="393.75" fill="hsl(272, 99%, 54%)"></use><use xlink:href="#SvgjsSymbol1031" x="112.5" y="393.75" fill="#c956ff"></use><use xlink:href="#SvgjsSymbol1032" x="112.5" y="393.75" fill="#5700c9"></use></g><g transform="translate(75 50)"><use xlink:href="#SvgjsSymbol1030" x="393.75" y="281.25" fill="hsl(272, 99%, 54%)"></use><use xlink:href="#SvgjsSymbol1031" x="393.75" y="281.25" fill="#c956ff"></use><use xlink:href="#SvgjsSymbol1032" x="393.75" y="281.25" fill="#5700c9"></use></g><g transform="translate(75 50)"><use xlink:href="#SvgjsSymbol1030" x="393.75" y="168.75" fill="hsl(272, 99%, 54%)"></use><use xlink:href="#SvgjsSymbol1031" x="393.75" y="168.75" fill="#c956ff"></use><use xlink:href="#SvgjsSymbol1032" x="393.75" y="168.75" fill="#5700c9"></use></g><g transform="translate(75 50)"><use xlink:href="#SvgjsSymbol1030" x="506.25" y="675" fill="hsl(272, 99%, 54%)"></use><use xlink:href="#SvgjsSymbol1031" x="506.25" y="675" fill="#c956ff"></use><use xlink:href="#SvgjsSymbol1032" x="506.25" y="675" fill="#5700c9"></use></g><g transform="translate(75 50)"><use xlink:href="#SvgjsSymbol1030" x="506.25" y="562.5" fill="hsl(272, 99%, 54%)"></use><use xlink:href="#SvgjsSymbol1031" x="506.25" y="562.5" fill="#c956ff"></use><use xlink:href="#SvgjsSymbol1032" x="506.25" y="562.5" fill="#5700c9"></use></g><g transform="translate(75 50)"><use xlink:href="#SvgjsSymbol1030" x="0" y="56.25" fill="hsl(272, 99%, 54%)"></use><use xlink:href="#SvgjsSymbol1031" x="0" y="56.25" fill="#c956ff"></use><use xlink:href="#SvgjsSymbol1032" x="0" y="56.25" fill="#5700c9"></use></g><g transform="translate(75 -25)"><use xlink:href="#SvgjsSymbol1030" x="0" y="56.25" fill="hsl(272, 99%, 54%)"></use><use xlink:href="#SvgjsSymbol1031" x="0" y="56.25" fill="#c956ff"></use><use xlink:href="#SvgjsSymbol1032" x="0" y="56.25" fill="#5700c9"></use></g><g transform="translate(75 25)"><use xlink:href="#SvgjsSymbol1030" x="506.25" y="506.25" fill="hsl(272, 99%, 54%)"></use><use xlink:href="#SvgjsSymbol1031" x="506.25" y="506.25" fill="#c956ff"></use><use xlink:href="#SvgjsSymbol1032" x="506.25" y="506.25" fill="#5700c9"></use></g><g transform="translate(-125 -100)"><use xlink:href="#SvgjsSymbol1030" x="0" y="450" fill="hsl(272, 99%, 54%)"></use><use xlink:href="#SvgjsSymbol1031" x="0" y="450" fill="#c956ff"></use><use xlink:href="#SvgjsSymbol1032" x="0" y="450" fill="#5700c9"></use></g><g transform="translate(-125 -100)"><use xlink:href="#SvgjsSymbol1030" x="0" y="337.5" fill="hsl(272, 99%, 54%)"></use><use xlink:href="#SvgjsSymbol1031" x="0" y="337.5" fill="#c956ff"></use><use xlink:href="#SvgjsSymbol1032" x="0" y="337.5" fill="#5700c9"></use></g><g transform="translate(-125 -100)"><use xlink:href="#SvgjsSymbol1030" x="0" y="225" fill="hsl(272, 99%, 54%)"></use><use xlink:href="#SvgjsSymbol1031" x="0" y="225" fill="#c956ff"></use><use xlink:href="#SvgjsSymbol1032" x="0" y="225" fill="#5700c9"></use></g><g transform="translate(25 -200)"><use xlink:href="#SvgjsSymbol1030" x="393.75" y="112.5" fill="hsl(272, 99%, 54%)"></use><use xlink:href="#SvgjsSymbol1031" x="393.75" y="112.5" fill="#c956ff"></use><use xlink:href="#SvgjsSymbol1032" x="393.75" y="112.5" fill="#5700c9"></use></g><g transform="translate(25 -200)"><use xlink:href="#SvgjsSymbol1030" x="393.75" y="56.25" fill="hsl(272, 99%, 54%)"></use><use xlink:href="#SvgjsSymbol1031" x="393.75" y="56.25" fill="#c956ff"></use><use xlink:href="#SvgjsSymbol1032" x="393.75" y="56.25" fill="#5700c9"></use></g><g transform="translate(-200 475)"><use xlink:href="#SvgjsSymbol1030" x="0" y="168.75" fill="hsl(272, 99%, 54%)"></use><use xlink:href="#SvgjsSymbol1031" x="0" y="168.75" fill="#c956ff"></use><use xlink:href="#SvgjsSymbol1032" x="0" y="168.75" fill="#5700c9"></use></g></g><symbol id="SvgjsSymbol1000"><polygon points="0,12.5 25,0 50,12.5 25,25"></polygon></symbol><symbol id="SvgjsSymbol1001"><polygon points="0,12.5 25,25 25,50 0,37.5"></polygon></symbol><symbol id="SvgjsSymbol1002"><polygon points="25,25 50,12.5 50,37.5 25,50"></polygon></symbol><g></g><symbol id="SvgjsSymbol1003"><polygon points="0,31.25 62.5,0 125,31.25 62.5,62.5"></polygon></symbol><symbol id="SvgjsSymbol1004"><polygon points="0,31.25 62.5,62.5 62.5,125 0,93.75"></polygon></symbol><symbol id="SvgjsSymbol1005"><polygon points="62.5,62.5 125,31.25 125,93.75 62.5,125"></polygon></symbol><symbol id="SvgjsSymbol1006"><polygon points="0,43.75 87.5,0 175,43.75 87.5,87.5"></polygon></symbol><symbol id="SvgjsSymbol1007"><polygon points="0,43.75 87.5,87.5 87.5,175 0,131.25"></polygon></symbol><symbol id="SvgjsSymbol1008"><polygon points="87.5,87.5 175,43.75 175,131.25 87.5,175"></polygon></symbol><symbol id="SvgjsSymbol1009"><polygon points="0,37.5 75,0 150,37.5 75,75"></polygon></symbol><symbol id="SvgjsSymbol1010"><polygon points="0,37.5 75,75 75,150 0,112.5"></polygon></symbol><symbol id="SvgjsSymbol1011"><polygon points="75,75 150,37.5 150,112.5 75,150"></polygon></symbol><symbol id="SvgjsSymbol1012"><polygon points="0,31.25 62.5,0 125,31.25 62.5,62.5"></polygon></symbol><symbol id="SvgjsSymbol1013"><polygon points="0,31.25 62.5,62.5 62.5,125 0,93.75"></polygon></symbol><symbol id="SvgjsSymbol1014"><polygon points="62.5,62.5 125,31.25 125,93.75 62.5,125"></polygon></symbol><symbol id="SvgjsSymbol1015"><polygon points="0,25 50,0 100,25 50,50"></polygon></symbol><symbol id="SvgjsSymbol1016"><polygon points="0,25 50,50 50,100 0,75"></polygon></symbol><symbol id="SvgjsSymbol1017"><polygon points="50,50 100,25 100,75 50,100"></polygon></symbol><symbol id="SvgjsSymbol1018"><polygon points="0,31.25 62.5,0 125,31.25 62.5,62.5"></polygon></symbol><symbol id="SvgjsSymbol1019"><polygon points="0,31.25 62.5,62.5 62.5,125 0,93.75"></polygon></symbol><symbol id="SvgjsSymbol1020"><polygon points="62.5,62.5 125,31.25 125,93.75 62.5,125"></polygon></symbol><symbol id="SvgjsSymbol1021"><polygon points="0,37.5 75,0 150,37.5 75,75"></polygon></symbol><symbol id="SvgjsSymbol1022"><polygon points="0,37.5 75,75 75,150 0,112.5"></polygon></symbol><symbol id="SvgjsSymbol1023"><polygon points="75,75 150,37.5 150,112.5 75,150"></polygon></symbol><symbol id="SvgjsSymbol1024"><polygon points="0,43.75 87.5,0 175,43.75 87.5,87.5"></polygon></symbol><symbol id="SvgjsSymbol1025"><polygon points="0,43.75 87.5,87.5 87.5,175 0,131.25"></polygon></symbol><symbol id="SvgjsSymbol1026"><polygon points="87.5,87.5 175,43.75 175,131.25 87.5,175"></polygon></symbol><symbol id="SvgjsSymbol1027"><polygon points="0,50 100,0 200,50 100,100"></polygon></symbol><symbol id="SvgjsSymbol1028"><polygon points="0,50 100,100 100,200 0,150"></polygon></symbol><symbol id="SvgjsSymbol1029"><polygon points="100,100 200,50 200,150 100,200"></polygon></symbol><symbol id="SvgjsSymbol1030"><polygon points="0,56.25 112.5,0 225,56.25 112.5,112.5"></polygon></symbol><symbol id="SvgjsSymbol1031"><polygon points="0,56.25 112.5,112.5 112.5,225 0,168.75"></polygon></symbol><symbol id="SvgjsSymbol1032"><polygon points="112.5,112.5 225,56.25 225,168.75 112.5,225"></polygon>
</symbol></svg>